<svg xmlns="http://www.w3.org/2000/svg" viewBox="0 0 512 512">
  <defs>
    <radialGradient id="bg" cx="34%" cy="20%" r="92%">
      <stop offset="0" stop-color="#fff8bd"/>
      <stop offset="0.28" stop-color="#ffc85a"/>
      <stop offset="0.58" stop-color="#ff5a2a"/>
      <stop offset="1" stop-color="#771507"/>
    </radialGradient>
    <radialGradient id="halo" cx="50%" cy="45%" r="48%">
      <stop offset="0" stop-color="#fff9b6" stop-opacity="0.95"/>
      <stop offset="0.48" stop-color="#ffb12f" stop-opacity="0.48"/>
      <stop offset="1" stop-color="#ff2f1f" stop-opacity="0"/>
    </radialGradient>
    <linearGradient id="flame" x1="0" x2="1" y1="0" y2="1">
      <stop offset="0" stop-color="#fff7b8"/>
      <stop offset="0.46" stop-color="#ff9f28"/>
      <stop offset="1" stop-color="#e7331f"/>
    </linearGradient>
    <clipPath id="round">
      <rect width="512" height="512" rx="112"/>
    </clipPath>
  </defs>
  <g clip-path="url(#round)">
    <rect width="512" height="512" fill="url(#bg)"/>
    <path d="M-20 386C58 278 94 164 76 34c91 80 128 169 112 267 62-94 78-190 48-286 124 82 197 186 218 313 11 70-17 132-79 184H-20Z" fill="#8b1807" opacity="0.34"/>
    <path d="M512 78c-69 91-95 186-77 284-53-63-82-138-88-226-39 82-44 162-15 240-107-75-152-180-134-315 72 67 125 82 160 43 47-52 90-60 154-26Z" fill="#fff1a4" opacity="0.3"/>
    <circle cx="260" cy="266" r="225" fill="url(#halo)"/>
    <path d="M92 438c74-56 121-121 140-195 20 53 20 111 0 174 57-50 93-116 109-198 51 84 58 162 20 219Z" fill="url(#flame)" opacity="0.76"/>
    <ellipse cx="258" cy="422" rx="160" ry="39" fill="#280800" opacity="0.42"/>
    <image href="https://raw.githubusercontent.com/PokeAPI/sprites/master/sprites/pokemon/other/official-artwork/257.png" x="63" y="36" width="386" height="408" preserveAspectRatio="xMidYMid meet"/>
    <rect x="14" y="14" width="484" height="484" rx="98" fill="none" stroke="#fff0a6" stroke-width="18" opacity="0.36"/>
    <rect x="28" y="28" width="456" height="456" rx="84" fill="none" stroke="#6f1306" stroke-width="8" opacity="0.38"/>
  </g>
</svg>
